<svg
    xmlns="http://www.w3.org/2000/svg"
    version="1.1"
    xmlns:xlink="http://www.w3.org/1999/xlink"
    style="font-size: 10pt; overflow: visible;"
    viewBox="171.1019287109375 -304.62786865234375 786.4057006835938 231.0382080078125"
>
    <defs>
        <symbol
            xmlns:ns0="http://www.w3.org/1999/xlink"
            id="path_american-voltage-source"
        >
            <defs>
                <path
                    id="path_american-voltage-source_a"
                    d="M6.56538-2.2914c.16937 0 .3487 0 .3487-.19927s-.17935-.19924-.34871-.19924h-5.38978c-.16936 0-.34869 0-.34869.19925s.17934.19925.3487.19925z"
                />
                <path
                    id="path_american-voltage-source_b"
                    d="M4.07472-2.2914h2.77958c.13947 0 .32876 0 .32876-.19927s-.18929-.19924-.32876-.19924h-2.77958v-2.78954c0-.13948 0-.32877-.19925-.32877s-.19927.1893-.19927.32877v2.78954h-2.78953c-.13947 0-.32876 0-.32876.19925s.18929.19925.32877.19925h2.78952v2.78954c.00001.13948.00001.32877.19927.32877s.19925-.1893.19925-.32877z"
                />
            </defs>
            <g stroke="#000" stroke-miterlimit="10" stroke-width=".4">
                <path
                    fill="currentFill"
                    stroke-width="1.06267"
                    d="M16.40544.53136c-8.7671 0-15.87408 7.10697-15.87408 15.87408s7.10697 15.87408 15.87408 15.87408 15.87408-7.10697 15.87408-15.87408-7.10697-15.87408-15.87408-15.87408Zm0 15.87408"
                    class="fillable"
                />
                <g stroke="none">
                    <use
                        xlink:href="#path_american-voltage-source_a"
                        x="-59.69594"
                        y="-59.69594"
                        transform="rotate(-90 23.99077 -82.01407)scale(1.33333)"
                        fill="currentColor"
                    />
                    <use
                        xlink:href="#path_american-voltage-source_b"
                        x="-59.69594"
                        y="-59.69594"
                        transform="rotate(-90 17.30681 -75.33011)scale(1.33333)"
                        fill="currentColor"
                    />
                </g>
            </g>
        </symbol>
        <path
            id="MJX-43-TEX-I-1D45B"
            d="M21 287Q22 293 24 303T36 341T56 388T89 425T135 442Q171 442 195 424T225 390T231 369Q231 367 232 367L243 378Q304 442 382 442Q436 442 469 415T503 336T465 179T427 52Q427 26 444 26Q450 26 453 27Q482 32 505 65T540 145Q542 153 560 153Q580 153 580 145Q580 144 576 130Q568 101 554 73T508 17T439 -10Q392 -10 371 17T350 73Q350 92 386 193T423 345Q423 404 379 404H374Q288 404 229 303L222 291L189 157Q156 26 151 16Q138 -11 108 -11Q95 -11 87 -5T76 7T74 17Q74 30 112 180T152 343Q153 348 153 366Q153 405 129 405Q91 405 66 305Q60 285 60 284Q58 278 41 278H27Q21 284 21 287Z"
        />
        <path
            id="MJX-43-TEX-I-1D456"
            d="M184 600Q184 624 203 642T247 661Q265 661 277 649T290 619Q290 596 270 577T226 557Q211 557 198 567T184 600ZM21 287Q21 295 30 318T54 369T98 420T158 442Q197 442 223 419T250 357Q250 340 236 301T196 196T154 83Q149 61 149 51Q149 26 166 26Q175 26 185 29T208 43T235 78T260 137Q263 149 265 151T282 153Q302 153 302 143Q302 135 293 112T268 61T223 11T161 -11Q129 -11 102 10T74 74Q74 91 79 106T122 220Q160 321 166 341T173 380Q173 404 156 404H154Q124 404 99 371T61 287Q60 286 59 284T58 281T56 279T53 278T49 278T41 278H27Q21 284 21 287Z"
        />
        <path
            id="MJX-43-TEX-I-1D449"
            d="M52 648Q52 670 65 683H76Q118 680 181 680Q299 680 320 683H330Q336 677 336 674T334 656Q329 641 325 637H304Q282 635 274 635Q245 630 242 620Q242 618 271 369T301 118L374 235Q447 352 520 471T595 594Q599 601 599 609Q599 633 555 637Q537 637 537 648Q537 649 539 661Q542 675 545 679T558 683Q560 683 570 683T604 682T668 681Q737 681 755 683H762Q769 676 769 672Q769 655 760 640Q757 637 743 637Q730 636 719 635T698 630T682 623T670 615T660 608T652 599T645 592L452 282Q272 -9 266 -16Q263 -18 259 -21L241 -22H234Q216 -22 216 -15Q213 -9 177 305Q139 623 138 626Q133 637 76 637H59Q52 642 52 648Z"
        />
        <symbol id="path_american-inductor">
            <g
                fill="none"
                stroke="#000"
                stroke-miterlimit="10"
                stroke-width=".4"
            >
                <path
                    stroke-linejoin="bevel"
                    stroke-width="1.06267"
                    d="M.53136 8.46801c0-4.38335 2.42844-7.93665 5.42414-7.93665 2.99572 0 5.42417 3.5533 5.42417 7.93665 0-4.38335 2.42844-7.93665 5.42416-7.93665 2.9957 0 5.42415 3.5533 5.42415 7.93665 0-4.38335 2.42846-7.93665 5.42416-7.93665s5.42416 3.5533 5.42416 7.93665c0-4.38335 2.42845-7.93665 5.42414-7.93665 2.99572 0 5.42417 3.5533 5.42417 7.93665"
                />
            </g>
        </symbol>
        <path
            id="MJX-44-TEX-I-1D45F"
            d="M21 287Q22 290 23 295T28 317T38 348T53 381T73 411T99 433T132 442Q161 442 183 430T214 408T225 388Q227 382 228 382T236 389Q284 441 347 441H350Q398 441 422 400Q430 381 430 363Q430 333 417 315T391 292T366 288Q346 288 334 299T322 328Q322 376 378 392Q356 405 342 405Q286 405 239 331Q229 315 224 298T190 165Q156 25 151 16Q138 -11 108 -11Q95 -11 87 -5T76 7T74 17Q74 30 114 189T154 366Q154 405 128 405Q107 405 92 377T68 316T57 280Q55 278 41 278H27Q21 284 21 287Z"
        />
        <path
            id="MJX-44-TEX-I-1D43F"
            d="M228 637Q194 637 192 641Q191 643 191 649Q191 673 202 682Q204 683 217 683Q271 680 344 680Q485 680 506 683H518Q524 677 524 674T522 656Q517 641 513 637H475Q406 636 394 628Q387 624 380 600T313 336Q297 271 279 198T252 88L243 52Q243 48 252 48T311 46H328Q360 46 379 47T428 54T478 72T522 106T564 161Q580 191 594 228T611 270Q616 273 628 273H641Q647 264 647 262T627 203T583 83T557 9Q555 4 553 3T537 0T494 -1Q483 -1 418 -1T294 0H116Q32 0 32 10Q32 17 34 24Q39 43 44 45Q48 46 59 46H65Q92 46 125 49Q139 52 144 61Q147 65 216 339T285 628Q285 635 228 637Z"
        />
        <symbol id="path_capacitor">
            <g stroke="#000" stroke-miterlimit="10" stroke-width=".4">
                <path
                    fill="currentFill"
                    d="M.53137.53136h10.58246v31.74816h-10.58246Z"
                    stroke="none"
                    class="fillable"
                />
                <path
                    fill="none"
                    stroke-width="1.06267"
                    d="M.53137.53136v31.74816m10.58243-31.74816v31.74816"
                />
            </g>
        </symbol>
        <path
            id="MJX-45-TEX-I-1D45F"
            d="M21 287Q22 290 23 295T28 317T38 348T53 381T73 411T99 433T132 442Q161 442 183 430T214 408T225 388Q227 382 228 382T236 389Q284 441 347 441H350Q398 441 422 400Q430 381 430 363Q430 333 417 315T391 292T366 288Q346 288 334 299T322 328Q322 376 378 392Q356 405 342 405Q286 405 239 331Q229 315 224 298T190 165Q156 25 151 16Q138 -11 108 -11Q95 -11 87 -5T76 7T74 17Q74 30 114 189T154 366Q154 405 128 405Q107 405 92 377T68 316T57 280Q55 278 41 278H27Q21 284 21 287Z"
        />
        <path
            id="MJX-45-TEX-I-1D436"
            d="M50 252Q50 367 117 473T286 641T490 704Q580 704 633 653Q642 643 648 636T656 626L657 623Q660 623 684 649Q691 655 699 663T715 679T725 690L740 705H746Q760 705 760 698Q760 694 728 561Q692 422 692 421Q690 416 687 415T669 413H653Q647 419 647 422Q647 423 648 429T650 449T651 481Q651 552 619 605T510 659Q484 659 454 652T382 628T299 572T226 479Q194 422 175 346T156 222Q156 108 232 58Q280 24 350 24Q441 24 512 92T606 240Q610 253 612 255T628 257Q648 257 648 248Q648 243 647 239Q618 132 523 55T319 -22Q206 -22 128 53T50 252Z"
        />
        <symbol id="node_transformer-core_cute">
            <g
                fill="none"
                stroke="#000"
                stroke-miterlimit="10"
                stroke-width=".4"
            >
                <path
                    stroke-linejoin="bevel"
                    stroke-width="1.06267"
                    d="M23.86432 23.54513c4.38355 0 7.93704 2.17963 7.93704 4.8684s-3.5535 4.8684-7.93704 4.8684c-2.19165-.00001-3.9683-.88833-3.9683-1.98418 0-1.09581 1.77665-1.98413 3.9683-1.98413 4.38355 0 7.93704 2.17962 7.93704 4.8684s-3.5535 4.86838-7.93704 4.86838c-2.19165 0-3.9683-.88831-3.9683-1.98415s1.77665-1.98415 3.9683-1.98415c4.38355 0 7.93704 2.17963 7.93704 4.8684s-3.5535 4.8684-7.93704 4.8684c-2.19165 0-3.9683-.88834-3.9683-1.98417s1.77665-1.98414 3.9683-1.98414c4.38355 0 7.93704 2.17963 7.93704 4.8684s-3.5535 4.8684-7.93704 4.8684c-2.19165-.00001-3.9683-.88835-3.9683-1.98418s1.77665-1.98413 3.9683-1.98413c4.38355 0 7.93704 2.17962 7.93704 4.8684s-3.5535 4.86838-7.93704 4.86838m32.17244.00009c-4.38356 0-7.93703-2.17963-7.93703-4.8684s3.55347-4.8684 7.93703-4.8684c2.19164.00001 3.9683.88834 3.9683 1.98417s-1.77665 1.98414-3.9683 1.98414c-4.38356 0-7.93703-2.17963-7.93703-4.8684s3.55347-4.8684 7.93703-4.8684c2.19164.00001 3.9683.88834 3.9683 1.98418 0 1.09581-1.77665 1.98413-3.9683 1.98413-4.38356 0-7.93703-2.17962-7.93703-4.8684s3.55347-4.86838 7.93703-4.86838c2.19164-.00001 3.9683.88831 3.9683 1.98415s-1.77665 1.98416-3.9683 1.98416c-4.38356-.00001-7.93703-2.17964-7.93703-4.86841s3.55347-4.86839 7.93703-4.86839c2.19164 0 3.9683.88834 3.9683 1.98416s-1.77665 1.98414-3.9683 1.98414c-4.38356 0-7.93703-2.17963-7.93703-4.8684s3.55347-4.8684 7.93703-4.8684"
                />
                <path
                    stroke-width=".53134"
                    d="M.26569.26569h23.81115v23.81077m0 31.74816v23.81077h-23.81114m79.36969-79.3697h-23.81115v23.81077m0 31.74816v23.81077h23.81115"
                />
                <path
                    stroke-width="1.06267"
                    d="M41.9343 59.79295v-39.68482m-3.96752 39.68482v-39.68482"
                />
            </g>
        </symbol>
        <path
            id="MJX-46-TEX-N-3A"
            d="M78 370Q78 394 95 412T138 430Q162 430 180 414T199 371Q199 346 182 328T139 310T96 327T78 370ZM78 60Q78 84 95 102T138 120Q162 120 180 104T199 61Q199 36 182 18T139 0T96 17T78 60Z"
        />
        <path
            id="MJX-46-TEX-N-31"
            d="M213 578L200 573Q186 568 160 563T102 556H83V602H102Q149 604 189 617T245 641T273 663Q275 666 285 666Q294 666 302 660V361L303 61Q310 54 315 52T339 48T401 46H427V0H416Q395 3 257 3Q121 3 100 0H88V46H114Q136 46 152 46T177 47T193 50T201 52T207 57T213 61V578Z"
        />
        <path
            id="MJX-46-TEX-I-1D45B"
            d="M21 287Q22 293 24 303T36 341T56 388T89 425T135 442Q171 442 195 424T225 390T231 369Q231 367 232 367L243 378Q304 442 382 442Q436 442 469 415T503 336T465 179T427 52Q427 26 444 26Q450 26 453 27Q482 32 505 65T540 145Q542 153 560 153Q580 153 580 145Q580 144 576 130Q568 101 554 73T508 17T439 -10Q392 -10 371 17T350 73Q350 92 386 193T423 345Q423 404 379 404H374Q288 404 229 303L222 291L189 157Q156 26 151 16Q138 -11 108 -11Q95 -11 87 -5T76 7T74 17Q74 30 112 180T152 343Q153 348 153 366Q153 405 129 405Q91 405 66 305Q60 285 60 284Q58 278 41 278H27Q21 284 21 287Z"
        />
        <symbol id="path_cute-inductor">
            <g
                fill="none"
                stroke="#000"
                stroke-miterlimit="10"
                stroke-width=".4"
            >
                <path
                    stroke-linejoin="bevel"
                    stroke-width="1.06267"
                    d="M.53136 8.46839c0-4.38355 2.17964-7.93704 4.8684-7.93704s4.8684 3.55349 4.8684 7.93705c-.00001 2.19164-.88834 3.96829-1.98418 3.96829-1.09581.00001-1.98413-1.77665-1.98413-3.96829 0-4.38356 2.17962-7.93705 4.8684-7.93705s4.86838 3.55349 4.86838 7.93705c.00001 2.19164-.88831 3.96829-1.98415 3.96829-1.09582.00001-1.98415-1.77665-1.98415-3.96829 0-4.38356 2.17963-7.93705 4.8684-7.93705s4.8684 3.55349 4.8684 7.93705c0 2.19164-.88833 3.96829-1.98416 3.96829s-1.98415-1.77665-1.98415-3.96829c0-4.38356 2.17963-7.93705 4.8684-7.93705s4.8684 3.55349 4.8684 7.93705c-.00001 2.19164-.88835 3.96829-1.98418 3.96829s-1.98413-1.77665-1.98413-3.96829c-.00001-4.38356 2.17962-7.93705 4.86839-7.93705s4.8684 3.55349 4.8684 7.93705"
                />
            </g>
        </symbol>
        <path
            id="MJX-47-TEX-I-1D45A"
            d="M21 287Q22 293 24 303T36 341T56 388T88 425T132 442T175 435T205 417T221 395T229 376L231 369Q231 367 232 367L243 378Q303 442 384 442Q401 442 415 440T441 433T460 423T475 411T485 398T493 385T497 373T500 364T502 357L510 367Q573 442 659 442Q713 442 746 415T780 336Q780 285 742 178T704 50Q705 36 709 31T724 26Q752 26 776 56T815 138Q818 149 821 151T837 153Q857 153 857 145Q857 144 853 130Q845 101 831 73T785 17T716 -10Q669 -10 648 17T627 73Q627 92 663 193T700 345Q700 404 656 404H651Q565 404 506 303L499 291L466 157Q433 26 428 16Q415 -11 385 -11Q372 -11 364 -4T353 8T350 18Q350 29 384 161L420 307Q423 322 423 345Q423 404 379 404H374Q288 404 229 303L222 291L189 157Q156 26 151 16Q138 -11 108 -11Q95 -11 87 -5T76 7T74 17Q74 30 112 181Q151 335 151 342Q154 357 154 369Q154 405 129 405Q107 405 92 377T69 316T57 280Q55 278 41 278H27Q21 284 21 287Z"
        />
        <path
            id="MJX-47-TEX-I-1D43F"
            d="M228 637Q194 637 192 641Q191 643 191 649Q191 673 202 682Q204 683 217 683Q271 680 344 680Q485 680 506 683H518Q524 677 524 674T522 656Q517 641 513 637H475Q406 636 394 628Q387 624 380 600T313 336Q297 271 279 198T252 88L243 52Q243 48 252 48T311 46H328Q360 46 379 47T428 54T478 72T522 106T564 161Q580 191 594 228T611 270Q616 273 628 273H641Q647 264 647 262T627 203T583 83T557 9Q555 4 553 3T537 0T494 -1Q483 -1 418 -1T294 0H116Q32 0 32 10Q32 17 34 24Q39 43 44 45Q48 46 59 46H65Q92 46 125 49Q139 52 144 61Q147 65 216 339T285 628Q285 635 228 637Z"
        />
        <path
            id="MJX-48-TEX-I-1D436"
            d="M50 252Q50 367 117 473T286 641T490 704Q580 704 633 653Q642 643 648 636T656 626L657 623Q660 623 684 649Q691 655 699 663T715 679T725 690L740 705H746Q760 705 760 698Q760 694 728 561Q692 422 692 421Q690 416 687 415T669 413H653Q647 419 647 422Q647 423 648 429T650 449T651 481Q651 552 619 605T510 659Q484 659 454 652T382 628T299 572T226 479Q194 422 175 346T156 222Q156 108 232 58Q280 24 350 24Q441 24 512 92T606 240Q610 253 612 255T628 257Q648 257 648 248Q648 243 647 239Q618 132 523 55T319 -22Q206 -22 128 53T50 252Z"
        />
        <path
            id="MJX-48-TEX-I-1D437"
            d="M287 628Q287 635 230 637Q207 637 200 638T193 647Q193 655 197 667T204 682Q206 683 403 683Q570 682 590 682T630 676Q702 659 752 597T803 431Q803 275 696 151T444 3L430 1L236 0H125H72Q48 0 41 2T33 11Q33 13 36 25Q40 41 44 43T67 46Q94 46 127 49Q141 52 146 61Q149 65 218 339T287 628ZM703 469Q703 507 692 537T666 584T629 613T590 629T555 636Q553 636 541 636T512 636T479 637H436Q392 637 386 627Q384 623 313 339T242 52Q242 48 253 48T330 47Q335 47 349 47T373 46Q499 46 581 128Q617 164 640 212T683 339T703 469Z"
        />
        <symbol id="path_battery">
            <g
                fill="none"
                stroke="#000"
                stroke-miterlimit="10"
                stroke-width=".4"
            >
                <path
                    stroke-width="1.06267"
                    d="M.53135.53136v31.74816m5.29136-23.81111v15.87406m5.29135-23.81111v31.74816m5.29136-23.81111v15.87406"
                />
            </g>
        </symbol>
        <path
            id="MJX-49-TEX-I-1D44E"
            d="M33 157Q33 258 109 349T280 441Q331 441 370 392Q386 422 416 422Q429 422 439 414T449 394Q449 381 412 234T374 68Q374 43 381 35T402 26Q411 27 422 35Q443 55 463 131Q469 151 473 152Q475 153 483 153H487Q506 153 506 144Q506 138 501 117T481 63T449 13Q436 0 417 -8Q409 -10 393 -10Q359 -10 336 5T306 36L300 51Q299 52 296 50Q294 48 292 46Q233 -10 172 -10Q117 -10 75 30T33 157ZM351 328Q351 334 346 350T323 385T277 405Q242 405 210 374T160 293Q131 214 119 129Q119 126 119 118T118 106Q118 61 136 44T179 26Q217 26 254 59T298 110Q300 114 325 217T351 328Z"
        />
        <path
            id="MJX-49-TEX-I-1D461"
            d="M26 385Q19 392 19 395Q19 399 22 411T27 425Q29 430 36 430T87 431H140L159 511Q162 522 166 540T173 566T179 586T187 603T197 615T211 624T229 626Q247 625 254 615T261 596Q261 589 252 549T232 470L222 433Q222 431 272 431H323Q330 424 330 420Q330 398 317 385H210L174 240Q135 80 135 68Q135 26 162 26Q197 26 230 60T283 144Q285 150 288 151T303 153H307Q322 153 322 145Q322 142 319 133Q314 117 301 95T267 48T216 6T155 -11Q125 -11 98 4T59 56Q57 64 57 83V101L92 241Q127 382 128 383Q128 385 77 385H26Z"
        />
        <path
            id="MJX-49-TEX-I-1D44F"
            d="M73 647Q73 657 77 670T89 683Q90 683 161 688T234 694Q246 694 246 685T212 542Q204 508 195 472T180 418L176 399Q176 396 182 402Q231 442 283 442Q345 442 383 396T422 280Q422 169 343 79T173 -11Q123 -11 82 27T40 150V159Q40 180 48 217T97 414Q147 611 147 623T109 637Q104 637 101 637H96Q86 637 83 637T76 640T73 647ZM336 325V331Q336 405 275 405Q258 405 240 397T207 376T181 352T163 330L157 322L136 236Q114 150 114 114Q114 66 138 42Q154 26 178 26Q211 26 245 58Q270 81 285 114T318 219Q336 291 336 325Z"
        />
        <path
            id="MJX-49-TEX-I-1D449"
            d="M52 648Q52 670 65 683H76Q118 680 181 680Q299 680 320 683H330Q336 677 336 674T334 656Q329 641 325 637H304Q282 635 274 635Q245 630 242 620Q242 618 271 369T301 118L374 235Q447 352 520 471T595 594Q599 601 599 609Q599 633 555 637Q537 637 537 648Q537 649 539 661Q542 675 545 679T558 683Q560 683 570 683T604 682T668 681Q737 681 755 683H762Q769 676 769 672Q769 655 760 640Q757 637 743 637Q730 636 719 635T698 630T682 623T670 615T660 608T652 599T645 592L452 282Q272 -9 266 -16Q263 -18 259 -21L241 -22H234Q216 -22 216 -15Q213 -9 177 305Q139 623 138 626Q133 637 76 637H59Q52 642 52 648Z"
        />
        <symbol id="path_american-resistor">
            <g
                fill="none"
                stroke="#000"
                stroke-miterlimit="10"
                stroke-width=".4"
            >
                <path
                    stroke-linejoin="bevel"
                    stroke-width="1.06267"
                    d="m.53136 8.46838 4.05887-7.93703 7.05509 15.87407 7.05508-15.87407 7.05508 15.87407 7.05509-15.87407 7.05509 15.87407 4.05887-7.93704"
                />
            </g>
        </symbol>
        <path
            id="MJX-50-TEX-I-1D45E"
            d="M33 157Q33 258 109 349T280 441Q340 441 372 389Q373 390 377 395T388 406T404 418Q438 442 450 442Q454 442 457 439T460 434Q460 425 391 149Q320 -135 320 -139Q320 -147 365 -148H390Q396 -156 396 -157T393 -175Q389 -188 383 -194H370Q339 -192 262 -192Q234 -192 211 -192T174 -192T157 -193Q143 -193 143 -185Q143 -182 145 -170Q149 -154 152 -151T172 -148Q220 -148 230 -141Q238 -136 258 -53T279 32Q279 33 272 29Q224 -10 172 -10Q117 -10 75 30T33 157ZM352 326Q329 405 277 405Q242 405 210 374T160 293Q131 214 119 129Q119 126 119 118T118 106Q118 61 136 44T179 26Q233 26 290 98L298 109L352 326Z"
        />
        <path
            id="MJX-50-TEX-N-2E"
            d="M78 60Q78 84 95 102T138 120Q162 120 180 104T199 61Q199 36 182 18T139 0T96 17T78 60Z"
        />
        <path
            id="MJX-50-TEX-I-1D452"
            d="M39 168Q39 225 58 272T107 350T174 402T244 433T307 442H310Q355 442 388 420T421 355Q421 265 310 237Q261 224 176 223Q139 223 138 221Q138 219 132 186T125 128Q125 81 146 54T209 26T302 45T394 111Q403 121 406 121Q410 121 419 112T429 98T420 82T390 55T344 24T281 -1T205 -11Q126 -11 83 42T39 168ZM373 353Q367 405 305 405Q272 405 244 391T199 357T170 316T154 280T149 261Q149 260 169 260Q282 260 327 284T373 353Z"
        />
        <path
            id="MJX-50-TEX-I-1D445"
            d="M230 637Q203 637 198 638T193 649Q193 676 204 682Q206 683 378 683Q550 682 564 680Q620 672 658 652T712 606T733 563T739 529Q739 484 710 445T643 385T576 351T538 338L545 333Q612 295 612 223Q612 212 607 162T602 80V71Q602 53 603 43T614 25T640 16Q668 16 686 38T712 85Q717 99 720 102T735 105Q755 105 755 93Q755 75 731 36Q693 -21 641 -21H632Q571 -21 531 4T487 82Q487 109 502 166T517 239Q517 290 474 313Q459 320 449 321T378 323H309L277 193Q244 61 244 59Q244 55 245 54T252 50T269 48T302 46H333Q339 38 339 37T336 19Q332 6 326 0H311Q275 2 180 2Q146 2 117 2T71 2T50 1Q33 1 33 10Q33 12 36 24Q41 43 46 45Q50 46 61 46H67Q94 46 127 49Q141 52 146 61Q149 65 218 339T287 628Q287 635 230 637ZM630 554Q630 586 609 608T523 636Q521 636 500 636T462 637H440Q393 637 386 627Q385 624 352 494T319 361Q319 360 388 360Q466 361 492 367Q556 377 592 426Q608 449 619 486T630 554Z"
        />
        <symbol id="node_nmos_bodydiode">
            <g stroke="#000" stroke-miterlimit="10" stroke-width=".4">
                <path
                    fill="none"
                    stroke-width=".53134"
                    d="M37.57039.26569v19.18203h-18.51952m0 20.372h18.51952v19.18204"
                />
                <path
                    fill="none"
                    stroke-width="1.06267"
                    d="M19.05087 15.08254v29.10236m-4.4445-24.73718v20.372"
                />
                <path
                    fill="none"
                    stroke-width=".53134"
                    d="M14.60638 29.63372h-14.34069"
                />
                <path
                    fill="none"
                    stroke-width="1.06267"
                    d="m48.6822 26.45895-3.96852 6.34955h7.93702Zm3.96851.00001h-7.93703"
                />
                <path
                    fill="none"
                    stroke-width=".53134"
                    d="M37.57039 12.17213h11.1118v14.28683"
                />
                <path
                    stroke-width=".53134"
                    d="M39.05169 12.17213c0-.8181-.6632-1.4813-1.4813-1.4813s-1.4813.6632-1.4813 1.4813.6632 1.4813 1.4813 1.4813 1.4813-.6632 1.4813-1.4813Zm-1.4813 0"
                    fill="currentColor"
                />
                <path
                    fill="none"
                    stroke-width=".53134"
                    d="M37.57039 47.09532h11.1118v-14.28683"
                />
                <path
                    stroke-width=".53134"
                    d="M39.05169 47.09532c0-.8181-.6632-1.4813-1.4813-1.4813s-1.4813.6632-1.4813 1.4813.6632 1.4813 1.4813 1.4813 1.4813-.6632 1.4813-1.4813Zm-1.4813 0"
                    fill="currentColor"
                />
            </g>
        </symbol>
        <path
            id="MJX-58-TEX-N-32"
            d="M109 429Q82 429 66 447T50 491Q50 562 103 614T235 666Q326 666 387 610T449 465Q449 422 429 383T381 315T301 241Q265 210 201 149L142 93L218 92Q375 92 385 97Q392 99 409 186V189H449V186Q448 183 436 95T421 3V0H50V19V31Q50 38 56 46T86 81Q115 113 136 137Q145 147 170 174T204 211T233 244T261 278T284 308T305 340T320 369T333 401T340 431T343 464Q343 527 309 573T212 619Q179 619 154 602T119 569T109 550Q109 549 114 549Q132 549 151 535T170 489Q170 464 154 447T109 429Z"
        />
        <path
            id="MJX-58-TEX-I-1D444"
            d="M399 -80Q399 -47 400 -30T402 -11V-7L387 -11Q341 -22 303 -22Q208 -22 138 35T51 201Q50 209 50 244Q50 346 98 438T227 601Q351 704 476 704Q514 704 524 703Q621 689 680 617T740 435Q740 255 592 107Q529 47 461 16L444 8V3Q444 2 449 -24T470 -66T516 -82Q551 -82 583 -60T625 -3Q631 11 638 11Q647 11 649 2Q649 -6 639 -34T611 -100T557 -165T481 -194Q399 -194 399 -87V-80ZM636 468Q636 523 621 564T580 625T530 655T477 665Q429 665 379 640Q277 591 215 464T153 216Q153 110 207 59Q231 38 236 38V46Q236 86 269 120T347 155Q372 155 390 144T417 114T429 82T435 55L448 64Q512 108 557 185T619 334T636 468ZM314 18Q362 18 404 39L403 49Q399 104 366 115Q354 117 347 117Q344 117 341 117T337 118Q317 118 296 98T274 52Q274 18 314 18Z"
        />
        <path
            id="MJX-55-TEX-N-33"
            d="M127 463Q100 463 85 480T69 524Q69 579 117 622T233 665Q268 665 277 664Q351 652 390 611T430 522Q430 470 396 421T302 350L299 348Q299 347 308 345T337 336T375 315Q457 262 457 175Q457 96 395 37T238 -22Q158 -22 100 21T42 130Q42 158 60 175T105 193Q133 193 151 175T169 130Q169 119 166 110T159 94T148 82T136 74T126 70T118 67L114 66Q165 21 238 21Q293 21 321 74Q338 107 338 175V195Q338 290 274 322Q259 328 213 329L171 330L168 332Q166 335 166 348Q166 366 174 366Q202 366 232 371Q266 376 294 413T322 525V533Q322 590 287 612Q265 626 240 626Q208 626 181 615T143 592T132 580H135Q138 579 143 578T153 573T165 566T175 555T183 540T186 520Q186 498 172 481T127 463Z"
        />
        <path
            id="MJX-55-TEX-I-1D444"
            d="M399 -80Q399 -47 400 -30T402 -11V-7L387 -11Q341 -22 303 -22Q208 -22 138 35T51 201Q50 209 50 244Q50 346 98 438T227 601Q351 704 476 704Q514 704 524 703Q621 689 680 617T740 435Q740 255 592 107Q529 47 461 16L444 8V3Q444 2 449 -24T470 -66T516 -82Q551 -82 583 -60T625 -3Q631 11 638 11Q647 11 649 2Q649 -6 639 -34T611 -100T557 -165T481 -194Q399 -194 399 -87V-80ZM636 468Q636 523 621 564T580 625T530 655T477 665Q429 665 379 640Q277 591 215 464T153 216Q153 110 207 59Q231 38 236 38V46Q236 86 269 120T347 155Q372 155 390 144T417 114T429 82T435 55L448 64Q512 108 557 185T619 334T636 468ZM314 18Q362 18 404 39L403 49Q399 104 366 115Q354 117 347 117Q344 117 341 117T337 118Q317 118 296 98T274 52Q274 18 314 18Z"
        />
        <path
            id="MJX-64-TEX-N-37"
            d="M55 458Q56 460 72 567L88 674Q88 676 108 676H128V672Q128 662 143 655T195 646T364 644H485V605L417 512Q408 500 387 472T360 435T339 403T319 367T305 330T292 284T284 230T278 162T275 80Q275 66 275 52T274 28V19Q270 2 255 -10T221 -22Q210 -22 200 -19T179 0T168 40Q168 198 265 368Q285 400 349 489L395 552H302Q128 552 119 546Q113 543 108 522T98 479L95 458V455H55V458Z"
        />
        <path
            id="MJX-64-TEX-I-1D444"
            d="M399 -80Q399 -47 400 -30T402 -11V-7L387 -11Q341 -22 303 -22Q208 -22 138 35T51 201Q50 209 50 244Q50 346 98 438T227 601Q351 704 476 704Q514 704 524 703Q621 689 680 617T740 435Q740 255 592 107Q529 47 461 16L444 8V3Q444 2 449 -24T470 -66T516 -82Q551 -82 583 -60T625 -3Q631 11 638 11Q647 11 649 2Q649 -6 639 -34T611 -100T557 -165T481 -194Q399 -194 399 -87V-80ZM636 468Q636 523 621 564T580 625T530 655T477 665Q429 665 379 640Q277 591 215 464T153 216Q153 110 207 59Q231 38 236 38V46Q236 86 269 120T347 155Q372 155 390 144T417 114T429 82T435 55L448 64Q512 108 557 185T619 334T636 468ZM314 18Q362 18 404 39L403 49Q399 104 366 115Q354 117 347 117Q344 117 341 117T337 118Q317 118 296 98T274 52Q274 18 314 18Z"
        />
        <path
            id="MJX-61-TEX-N-36"
            d="M42 313Q42 476 123 571T303 666Q372 666 402 630T432 550Q432 525 418 510T379 495Q356 495 341 509T326 548Q326 592 373 601Q351 623 311 626Q240 626 194 566Q147 500 147 364L148 360Q153 366 156 373Q197 433 263 433H267Q313 433 348 414Q372 400 396 374T435 317Q456 268 456 210V192Q456 169 451 149Q440 90 387 34T253 -22Q225 -22 199 -14T143 16T92 75T56 172T42 313ZM257 397Q227 397 205 380T171 335T154 278T148 216Q148 133 160 97T198 39Q222 21 251 21Q302 21 329 59Q342 77 347 104T352 209Q352 289 347 316T329 361Q302 397 257 397Z"
        />
        <path
            id="MJX-61-TEX-I-1D444"
            d="M399 -80Q399 -47 400 -30T402 -11V-7L387 -11Q341 -22 303 -22Q208 -22 138 35T51 201Q50 209 50 244Q50 346 98 438T227 601Q351 704 476 704Q514 704 524 703Q621 689 680 617T740 435Q740 255 592 107Q529 47 461 16L444 8V3Q444 2 449 -24T470 -66T516 -82Q551 -82 583 -60T625 -3Q631 11 638 11Q647 11 649 2Q649 -6 639 -34T611 -100T557 -165T481 -194Q399 -194 399 -87V-80ZM636 468Q636 523 621 564T580 625T530 655T477 665Q429 665 379 640Q277 591 215 464T153 216Q153 110 207 59Q231 38 236 38V46Q236 86 269 120T347 155Q372 155 390 144T417 114T429 82T435 55L448 64Q512 108 557 185T619 334T636 468ZM314 18Q362 18 404 39L403 49Q399 104 366 115Q354 117 347 117Q344 117 341 117T337 118Q317 118 296 98T274 52Q274 18 314 18Z"
        />
        <symbol id="node_currarrow">
            <g stroke="#000" stroke-miterlimit="10" stroke-width=".53134">
                <path
                    d="M.2657 2.91132v2.64564l5.62198-2.64564-5.62198-2.64562Z"
                    fill="currentColor"
                />
            </g>
        </symbol>
    </defs>
    <g class="" style="">
        <use
            xlink:href="#path_american-voltage-source"
            fill="none"
            stroke="#000"
            transform="matrix(6.123233995736766e-17,1,-1,6.123233995736766e-17,205.38144,-205.38194)"
            style="color: #000;"
        />
        <line
            x1="188.976"
            y1="-226.772"
            x2="188.976"
            y2="-204.85057999999998"
            fill="none"
            stroke-width="0.5"
            stroke="#000"
        />
        <line
            x1="188.976"
            y1="-151.181"
            x2="188.976"
            y2="-173.10242"
            fill="none"
            stroke-width="0.5"
            stroke="#000"
        />
        <g
            class="pointerNone"
            transform="matrix(1,0,0,1,209.2168099018636,-185.4420385017395)"
            fill="#000"
        >
            <g
                transform="matrix(0.013462751339894365,0,0,0.013458896619097443,0,0)"
            >
                <g
                    stroke="currentColor"
                    fill="inherit"
                    stroke-width="0"
                    transform="scale(1,-1)"
                >
                    <g>
                        <g
                            transform="translate(616,-150) scale(0.707)"
                            data-mjx-texclass="ORD"
                        >
                            <g transform="translate(345,0)">
                                <use xlink:href="#MJX-43-TEX-I-1D45B" />
                            </g>
                            <use xlink:href="#MJX-43-TEX-I-1D456" />
                        </g>
                        <use xlink:href="#MJX-43-TEX-I-1D449" />
                    </g>
                </g>
            </g>
        </g>
    </g>
    <g class="" style="">
        <use
            xlink:href="#path_american-inductor"
            fill="none"
            stroke="#000"
            transform="matrix(1,0,0,1,393.52,-216.12949)"
            style="color: #000;"
        />
        <line
            x1="377.953"
            y1="-207.874"
            x2="394.5827"
            y2="-207.874"
            fill="none"
            stroke-width="0.5"
            stroke="#000"
        />
        <line
            x1="453.543"
            y1="-207.874"
            x2="436.91332"
            y2="-207.874"
            fill="none"
            stroke-width="0.5"
            stroke="#000"
        />
        <g
            class="pointerNone"
            transform="matrix(1,0,0,1,408.6810353438854,-222.788427709538)"
            fill="#000"
        >
            <g
                transform="matrix(0.013460753716422733,0,0,0.013458896619097443,0,0)"
            >
                <g
                    stroke="currentColor"
                    fill="inherit"
                    stroke-width="0"
                    transform="scale(1,-1)"
                >
                    <g>
                        <g transform="translate(714,-150) scale(0.707)">
                            <use xlink:href="#MJX-44-TEX-I-1D45F" />
                        </g>
                        <use xlink:href="#MJX-44-TEX-I-1D43F" />
                    </g>
                </g>
            </g>
        </g>
    </g>
    <g class="" style="">
        <use
            xlink:href="#path_capacitor"
            fill="none"
            stroke="#000"
            transform="matrix(1,0,0,1,485.51591,-224.27944)"
            style="color: #000;"
        />
        <line
            x1="453.543"
            y1="-207.874"
            x2="486.04728"
            y2="-207.874"
            fill="none"
            stroke-width="0.5"
            stroke="#000"
        />
        <line
            x1="529.134"
            y1="-207.874"
            x2="496.62971000000005"
            y2="-207.874"
            fill="none"
            stroke-width="0.5"
            stroke="#000"
        />
        <g
            class="pointerNone"
            transform="matrix(1,0,0,1,483.92133120393754,-230.93863138690617)"
            fill="#000"
        >
            <g
                transform="matrix(0.013461163480615015,0,0,0.013460504096511441,0,0)"
            >
                <g
                    stroke="currentColor"
                    fill="inherit"
                    stroke-width="0"
                    transform="scale(1,-1)"
                >
                    <g>
                        <g transform="translate(748,-150) scale(0.707)">
                            <use xlink:href="#MJX-45-TEX-I-1D45F" />
                        </g>
                        <use xlink:href="#MJX-45-TEX-I-1D436" />
                    </g>
                </g>
            </g>
        </g>
    </g>
    <g class="">
        <use
            xlink:href="#node_transformer-core_cute"
            fill="none"
            stroke="#000"
            transform="matrix(1,0,0,1,528.8684599999999,-208.13953999999998)"
            style="color: #000;"
        />
        <g
            class="pointerNone"
            transform="matrix(1,0,0,1,556.1541372182369,-212.5573829701581)"
            fill="#000"
        >
            <g
                transform="matrix(0.013461797941214552,0,0,0.0134636168604924,0,0)"
            >
                <g
                    stroke="currentColor"
                    fill="inherit"
                    stroke-width="0"
                    transform="scale(1,-1)"
                >
                    <g>
                        <g transform="translate(877.8,0)">
                            <use xlink:href="#MJX-46-TEX-N-3A" />
                        </g>
                        <g transform="translate(1433.6,0)">
                            <use xlink:href="#MJX-46-TEX-N-31" />
                        </g>
                        <use xlink:href="#MJX-46-TEX-I-1D45B" />
                    </g>
                </g>
            </g>
        </g>
    </g>
    <g class="" style="">
        <use
            xlink:href="#path_cute-inductor"
            fill="none"
            stroke="#000"
            transform="matrix(6.123233995736766e-17,1,-1,6.123233995736766e-17,537.38986,-185.12577)"
            style="color: #000;"
        />
        <line
            x1="529.134"
            y1="-207.874"
            x2="529.134"
            y2="-184.06307999999999"
            fill="none"
            stroke-width="0.5"
            stroke="#000"
        />
        <line
            x1="529.134"
            y1="-128.504"
            x2="529.134"
            y2="-152.31491999999997"
            fill="none"
            stroke-width="0.5"
            stroke="#000"
        />
        <g
            class="pointerNone"
            transform="matrix(1,0,0,1,503.1824265507636,-164.6545385017395)"
            fill="#000"
        >
            <g
                transform="matrix(0.013460617631390937,0,0,0.013458896619097443,0,0)"
            >
                <g
                    stroke="currentColor"
                    fill="inherit"
                    stroke-width="0"
                    transform="scale(1,-1)"
                >
                    <g>
                        <g transform="translate(714,-150) scale(0.707)">
                            <use xlink:href="#MJX-47-TEX-I-1D45A" />
                        </g>
                        <use xlink:href="#MJX-47-TEX-I-1D43F" />
                    </g>
                </g>
            </g>
        </g>
    </g>
    <g class="" style="">
        <use
            xlink:href="#path_capacitor"
            fill="none"
            stroke="#000"
            transform="matrix(6.123233995736766e-17,1,-1,6.123233995736766e-17,847.9015029921259,-194.79874354330707)"
            style="color: #000;"
        />
        <line
            x1="831.4960629921259"
            y1="-226.77165354330708"
            x2="831.4960629921259"
            y2="-194.26737354330706"
            fill="none"
            stroke-width="0.5"
            stroke="#000"
        />
        <line
            x1="831.4960629921259"
            y1="-151.1806535433071"
            x2="831.4960629921259"
            y2="-183.68494354330707"
            fill="none"
            stroke-width="0.5"
            stroke="#000"
        />
        <g
            class="pointerNone"
            transform="matrix(1,0,0,1,851.7638870899085,-185.3448945787685)"
            fill="#000"
        >
            <g
                transform="matrix(0.01346097795720514,0,0,0.013462918321890567,0,0)"
            >
                <g
                    stroke="currentColor"
                    fill="inherit"
                    stroke-width="0"
                    transform="scale(1,-1)"
                >
                    <g>
                        <g
                            transform="translate(748,-150) scale(0.707)"
                            data-mjx-texclass="ORD"
                        >
                            <g transform="translate(828,0)">
                                <use xlink:href="#MJX-48-TEX-I-1D436" />
                            </g>
                            <use xlink:href="#MJX-48-TEX-I-1D437" />
                        </g>
                        <use xlink:href="#MJX-48-TEX-I-1D436" />
                    </g>
                </g>
            </g>
        </g>
    </g>
    <g class="" style="">
        <use
            xlink:href="#path_battery"
            fill="none"
            stroke="#000"
            transform="matrix(6.123233995736766e-17,1,-1,6.123233995736766e-17,923.4915029921258,-197.44454354330708)"
            style="color: #000;"
        />
        <line
            x1="907.0860629921258"
            y1="-226.77165354330708"
            x2="907.0860629921258"
            y2="-196.91319354330707"
            fill="none"
            stroke-width="0.5"
            stroke="#000"
        />
        <line
            x1="907.0860629921258"
            y1="-151.1806535433071"
            x2="907.0860629921258"
            y2="-181.03912354330708"
            fill="none"
            stroke-width="0.5"
            stroke="#000"
        />
        <g>
            <g
                class="pointerNone"
                fill="#000"
                transform="matrix(1,0,0,1,931.5246719794337,-185.44169204504664)"
            >
                <g
                    transform="matrix(0.013459650078381362,0,0,0.013458896619097443,0,0)"
                >
                    <g
                        stroke="currentColor"
                        fill="inherit"
                        stroke-width="0"
                        transform="scale(1,-1)"
                    >
                        <g>
                            <g
                                transform="translate(616,-150) scale(0.707)"
                                data-mjx-texclass="ORD"
                            >
                                <g transform="translate(429,0)">
                                    <use xlink:href="#MJX-49-TEX-I-1D44E" />
                                </g>
                                <g transform="translate(958,0)">
                                    <use xlink:href="#MJX-49-TEX-I-1D461" />
                                </g>
                                <g transform="translate(1319,0)">
                                    <use xlink:href="#MJX-49-TEX-I-1D461" />
                                </g>
                                <use xlink:href="#MJX-49-TEX-I-1D44F" />
                            </g>
                            <use xlink:href="#MJX-49-TEX-I-1D449" />
                        </g>
                    </g>
                </g>
            </g>
            <g>
                <path
                    d="M0 4.5 H9 M4.5 0V9"
                    stroke-linejoin="round"
                    stroke-width="0.5"
                    stroke="#000"
                    transform="matrix(1,0,0,1,923.4915029921258,-202.89287610330712)"
                />
                <path
                    d="M0 4.5 H9"
                    stroke-linejoin="round"
                    stroke-width="0.5"
                    stroke="#000"
                    transform="matrix(1,0,0,1,923.4915029921258,-184.05943098330704)"
                />
            </g>
        </g>
    </g>
    <g class="" style="">
        <use
            xlink:href="#path_american-resistor"
            fill="none"
            stroke="#000"
            transform="matrix(6.123233995736766e-17,1,-1,6.123233995736766e-17,915.5544429921258,-277.346153543307)"
            style="color: #000;"
        />
        <line
            x1="907.0860629921258"
            y1="-283.464653543307"
            x2="907.0860629921258"
            y2="-276.283453543307"
            fill="none"
            stroke-width="0.5"
            stroke="#000"
        />
        <line
            x1="907.0860629921258"
            y1="-226.77165354330708"
            x2="907.0860629921258"
            y2="-233.952833543307"
            fill="none"
            stroke-width="0.5"
            stroke="#000"
        />
        <g
            class="pointerNone"
            transform="matrix(1,0,0,1,919.6456968559054,-252.45401474936173)"
            fill="#000"
        >
            <g
                transform="matrix(0.013459974719219349,0,0,0.013460614974372469,0,0)"
            >
                <g
                    stroke="currentColor"
                    fill="inherit"
                    stroke-width="0"
                    transform="scale(1,-1)"
                >
                    <g>
                        <g
                            transform="translate(792,-150) scale(0.707)"
                            data-mjx-texclass="ORD"
                        >
                            <g transform="translate(466,0)">
                                <use xlink:href="#MJX-50-TEX-I-1D45E" />
                            </g>
                            <g transform="translate(926,0)">
                                <use xlink:href="#MJX-50-TEX-N-2E" />
                            </g>
                            <use xlink:href="#MJX-50-TEX-I-1D452" />
                        </g>
                        <use xlink:href="#MJX-50-TEX-I-1D445" />
                    </g>
                </g>
            </g>
        </g>
    </g>
    <g class="">
        <polyline
            points="831.4960629921259,-226.77165354330708 831.4960629921259,-302.36165354330706"
            fill="none"
            stroke-dasharray="0.4pt 0pt"
            stroke-opacity="1"
            stroke-width="0.5333333333333333"
            stroke="#000"
        />
    </g>
    <g class="">
        <polyline
            points="907.0860629921258,-151.1806535433071 907.0860629921258,-75.59065354330708 831.4960629921259,-75.59065354330708"
            fill="none"
            stroke-dasharray="0.4pt 0pt"
            stroke-opacity="1"
            stroke-width="0.5333333333333333"
            stroke="#000"
        />
    </g>
    <g class="">
        <polyline
            points="226.772,-75.591 188.976,-75.591 188.976,-151.181"
            fill="none"
            stroke-dasharray="0.4pt 0pt"
            stroke-opacity="1"
            stroke-width="0.5333333333333333"
            stroke="#000"
        />
    </g>
    <g class="">
        <polyline
            points="264.567,-302.362 188.976,-302.362 188.976,-226.772"
            fill="none"
            stroke-dasharray="0.4pt 0pt"
            stroke-opacity="1"
            stroke-width="0.5333333333333333"
            stroke="#000"
        />
    </g>
    <g class="">
        <polyline
            points="907.0860629921258,-283.46365354330703 907.0860629921258,-302.36165354330706 831.4950629921258,-302.36165354330706"
            fill="none"
            stroke-dasharray="0.4pt 0pt"
            stroke-opacity="1"
            stroke-width="0.5333333333333333"
            stroke="#000"
        />
    </g>
    <g class="">
        <polyline
            points="831.4950629921258,-151.1806535433071 831.4950629921258,-75.5896535433071"
            fill="none"
            stroke-dasharray="0.4pt 0pt"
            stroke-opacity="1"
            stroke-width="0.5333333333333333"
            stroke="#000"
        />
    </g>
    <g class="">
        <polyline
            points="264.567,-75.591 264.567,-92.977"
            fill="none"
            stroke-dasharray="0.4pt 0pt"
            stroke-opacity="1"
            stroke-width="0.5333333333333333"
            stroke="#000"
        />
    </g>
    <g class="">
        <polyline
            points="529.134,-128.504 377.953,-128.504 377.953,-151.181"
            fill="none"
            stroke-dasharray="0.4pt 0pt"
            stroke-opacity="1"
            stroke-width="0.5333333333333333"
            stroke="#000"
        />
    </g>
    <g class="">
        <polyline
            points="264.567,-302.362 340.157,-302.362"
            fill="none"
            stroke-dasharray="0.4pt 0pt"
            stroke-opacity="1"
            stroke-width="0.5333333333333333"
            stroke="#000"
        />
    </g>
    <g class="">
        <polyline
            points="226.772,-75.591 264.567,-75.591"
            fill="none"
            stroke-dasharray="0.4pt 0pt"
            stroke-opacity="1"
            stroke-width="0.5333333333333333"
            stroke="#000"
        />
    </g>
    <g class="">
        <polyline
            points="264.567,-151.181 377.953,-151.181"
            fill="none"
            stroke-dasharray="0.4pt 0pt"
            stroke-opacity="1"
            stroke-width="0.5333333333333333"
            stroke="#000"
        />
    </g>
    <g class="">
        <polyline
            points="340.157,-244.158 340.157,-207.874 377.953,-207.874"
            fill="none"
            stroke-dasharray="0.4pt 0pt"
            stroke-opacity="1"
            stroke-width="0.5333333333333333"
            stroke="#000"
        />
    </g>
    <g class="">
        <use
            xlink:href="#node_nmos_bodydiode"
            fill="none"
            stroke="#000"
            transform="matrix(1,0,0,1,226.99653913385825,-151.71246236220472)"
            class=""
            style="color: #000;"
        />
        <g
            class="pointerNone"
            transform="matrix(1,0,0,1,286.1548254536067,-118.64569935912245)"
            fill="#000"
        >
            <g
                transform="matrix(0.013458933510234297,0,0,0.01346291223372247,0,0)"
            >
                <g
                    stroke="currentColor"
                    fill="inherit"
                    stroke-width="0"
                    transform="scale(1,-1)"
                >
                    <g>
                        <g transform="translate(824,-150) scale(0.707)">
                            <use xlink:href="#MJX-58-TEX-N-32" />
                        </g>
                        <use xlink:href="#MJX-58-TEX-I-1D444" />
                    </g>
                </g>
            </g>
        </g>
    </g>
    <g class="">
        <use
            xlink:href="#node_nmos_bodydiode"
            fill="none"
            stroke="#000"
            transform="matrix(1,0,0,1,302.5870903149606,-302.89356472440943)"
            class=""
            style="color: #000;"
        />
        <g
            class="pointerNone"
            transform="matrix(1,0,0,1,361.74537663470903,-269.8268017213272)"
            fill="#000"
        >
            <g
                transform="matrix(0.013458933510234297,0,0,0.01346291223372247,0,0)"
            >
                <g
                    stroke="currentColor"
                    fill="inherit"
                    stroke-width="0"
                    transform="scale(1,-1)"
                >
                    <g>
                        <g transform="translate(824,-150) scale(0.707)">
                            <use xlink:href="#MJX-55-TEX-N-33" />
                        </g>
                        <use xlink:href="#MJX-55-TEX-I-1D444" />
                    </g>
                </g>
            </g>
        </g>
    </g>
    <g class="">
        <use
            xlink:href="#node_nmos_bodydiode"
            fill="none"
            stroke="#000"
            transform="matrix(1,0,0,1,718.3351218110236,-302.89356472440943)"
            class=""
            style="color: #000;"
        />
        <g
            class="pointerNone"
            transform="matrix(1,0,0,1,777.493408130772,-269.8268017213272)"
            fill="#000"
        >
            <g
                transform="matrix(0.013458933510234297,0,0,0.01346291223372247,0,0)"
            >
                <g
                    stroke="currentColor"
                    fill="inherit"
                    stroke-width="0"
                    transform="scale(1,-1)"
                >
                    <g>
                        <g transform="translate(824,-150) scale(0.707)">
                            <use xlink:href="#MJX-64-TEX-N-37" />
                        </g>
                        <use xlink:href="#MJX-64-TEX-I-1D444" />
                    </g>
                </g>
            </g>
        </g>
    </g>
    <g class="">
        <use
            xlink:href="#node_nmos_bodydiode"
            fill="none"
            stroke="#000"
            transform="matrix(1,0,0,1,642.7445706299212,-153.22428897637795)"
            class=""
            style="color: #000;"
        />
        <g
            class="pointerNone"
            transform="matrix(1,0,0,1,701.9028569496696,-120.15752597329568)"
            fill="#000"
        >
            <g
                transform="matrix(0.013458933510234297,0,0,0.01346291223372247,0,0)"
            >
                <g
                    stroke="currentColor"
                    fill="inherit"
                    stroke-width="0"
                    transform="scale(1,-1)"
                >
                    <g>
                        <g transform="translate(824,-150) scale(0.707)">
                            <use xlink:href="#MJX-61-TEX-N-36" />
                        </g>
                        <use xlink:href="#MJX-61-TEX-I-1D444" />
                    </g>
                </g>
            </g>
        </g>
    </g>
    <g class="">
        <polyline
            points="680.3149606299212,-133.79529118110236 680.3149606299212,-207.87401574803147 680.3149606299212,-207.87384999999998 608.5038499999999,-207.87384999999998"
            fill="none"
            stroke-dasharray="0.4pt 0pt"
            stroke-opacity="1"
            stroke-width="0.5333333333333333"
            stroke="#000"
        />
    </g>
    <g class="">
        <polyline
            points="608.5038499999999,-128.50414999999998 633.0708661417323,-128.50414999999998 633.0708661417323,-170.0787401574803 755.9055118110235,-170.0787401574803 755.9055118110235,-245.66929133858267"
            fill="none"
            stroke-dasharray="0.4pt 0pt"
            stroke-opacity="1"
            stroke-width="0.5333333333333333"
            stroke="#000"
        />
    </g>
    <g class="">
        <use
            xlink:href="#node_currarrow"
            fill="none"
            stroke="#000"
            transform="matrix(1,0,0,1,605.92323,-131.41546999999997)"
            style="color: #000;"
        />
    </g>
    <g class="">
        <use
            xlink:href="#node_currarrow"
            fill="none"
            stroke="#000"
            transform="matrix(1,0,0,1,517.1044193700787,-210.78533574803146)"
            style="color: #000;"
        />
    </g>
    <g class="">
        <polyline
            points="680.3149606299212,-94.48818897637794 680.3149606299212,-75.59055118110236 831.4960629921259,-75.59055118110236"
            fill="none"
            stroke-dasharray="0.4pt 0pt"
            stroke-opacity="1"
            stroke-width="0.5333333333333333"
            stroke="#000"
        />
    </g>
    <g class="">
        <polyline
            points="755.9055118110235,-302.3622047244094 831.4960629921259,-302.3622047244094"
            fill="none"
            stroke-dasharray="0.4pt 0pt"
            stroke-opacity="1"
            stroke-width="0.5333333333333333"
            stroke="#000"
        />
    </g>
</svg>
